<mxfile host="app.diagrams.net" modified="2024-04-16T20:48:01.130Z" agent="Mozilla/5.0 (Windows NT 10.0; Win64; x64) AppleWebKit/537.36 (KHTML, like Gecko) Chrome/121.0.0.0 Safari/537.36 OPR/107.0.0.0" etag="hCgy-YNyLf5Fx68ngQc9" version="24.2.5" type="github">
  <diagram name="Página-1" id="WLfsxu0hI6bbsJSSACSM">
    <mxGraphModel dx="841" dy="452" grid="1" gridSize="10" guides="1" tooltips="1" connect="1" arrows="1" fold="1" page="1" pageScale="1" pageWidth="827" pageHeight="1169" math="0" shadow="0">
      <root>
        <mxCell id="0" />
        <mxCell id="1" parent="0" />
        <mxCell id="pJIeMaMoxb5aIgQhfbgk-2" value="sistema" style="swimlane;" vertex="1" parent="1">
          <mxGeometry width="310" height="520" as="geometry" />
        </mxCell>
        <mxCell id="pJIeMaMoxb5aIgQhfbgk-18" value="" style="edgeStyle=orthogonalEdgeStyle;rounded=0;orthogonalLoop=1;jettySize=auto;html=1;" edge="1" parent="pJIeMaMoxb5aIgQhfbgk-2" source="pJIeMaMoxb5aIgQhfbgk-4" target="pJIeMaMoxb5aIgQhfbgk-8">
          <mxGeometry relative="1" as="geometry" />
        </mxCell>
        <mxCell id="pJIeMaMoxb5aIgQhfbgk-4" value="" style="ellipse;whiteSpace=wrap;html=1;aspect=fixed;" vertex="1" parent="pJIeMaMoxb5aIgQhfbgk-2">
          <mxGeometry x="35" y="40" width="30" height="30" as="geometry" />
        </mxCell>
        <mxCell id="pJIeMaMoxb5aIgQhfbgk-11" style="edgeStyle=orthogonalEdgeStyle;rounded=0;orthogonalLoop=1;jettySize=auto;html=1;entryX=0;entryY=0.5;entryDx=0;entryDy=0;" edge="1" parent="pJIeMaMoxb5aIgQhfbgk-2" source="pJIeMaMoxb5aIgQhfbgk-8" target="pJIeMaMoxb5aIgQhfbgk-10">
          <mxGeometry relative="1" as="geometry" />
        </mxCell>
        <mxCell id="pJIeMaMoxb5aIgQhfbgk-8" value="carregar todos os clientes" style="rounded=1;whiteSpace=wrap;html=1;" vertex="1" parent="pJIeMaMoxb5aIgQhfbgk-2">
          <mxGeometry x="10" y="110" width="80" height="30" as="geometry" />
        </mxCell>
        <mxCell id="pJIeMaMoxb5aIgQhfbgk-13" value="" style="edgeStyle=orthogonalEdgeStyle;rounded=0;orthogonalLoop=1;jettySize=auto;html=1;" edge="1" parent="pJIeMaMoxb5aIgQhfbgk-2" source="pJIeMaMoxb5aIgQhfbgk-10" target="pJIeMaMoxb5aIgQhfbgk-12">
          <mxGeometry relative="1" as="geometry" />
        </mxCell>
        <mxCell id="pJIeMaMoxb5aIgQhfbgk-10" value="Apresentar veiculos disponiveis" style="rounded=1;whiteSpace=wrap;html=1;" vertex="1" parent="pJIeMaMoxb5aIgQhfbgk-2">
          <mxGeometry x="140" y="110" width="130" height="30" as="geometry" />
        </mxCell>
        <mxCell id="pJIeMaMoxb5aIgQhfbgk-12" value="Listar a descrição, modelo e marca de cada veiculo" style="whiteSpace=wrap;html=1;rounded=1;" vertex="1" parent="pJIeMaMoxb5aIgQhfbgk-2">
          <mxGeometry x="138.75" y="170" width="132.5" height="50" as="geometry" />
        </mxCell>
        <mxCell id="pJIeMaMoxb5aIgQhfbgk-3" value="funcionario" style="swimlane;" vertex="1" parent="1">
          <mxGeometry x="310" width="320" height="520" as="geometry" />
        </mxCell>
        <mxCell id="pJIeMaMoxb5aIgQhfbgk-17" value="" style="edgeStyle=orthogonalEdgeStyle;rounded=0;orthogonalLoop=1;jettySize=auto;html=1;" edge="1" parent="pJIeMaMoxb5aIgQhfbgk-3" source="pJIeMaMoxb5aIgQhfbgk-14" target="pJIeMaMoxb5aIgQhfbgk-16">
          <mxGeometry relative="1" as="geometry" />
        </mxCell>
        <mxCell id="pJIeMaMoxb5aIgQhfbgk-14" value="selecionar o cliente" style="whiteSpace=wrap;html=1;rounded=1;" vertex="1" parent="pJIeMaMoxb5aIgQhfbgk-3">
          <mxGeometry x="20" y="182.5" width="110" height="25" as="geometry" />
        </mxCell>
        <mxCell id="pJIeMaMoxb5aIgQhfbgk-21" value="" style="edgeStyle=orthogonalEdgeStyle;rounded=0;orthogonalLoop=1;jettySize=auto;html=1;" edge="1" parent="pJIeMaMoxb5aIgQhfbgk-3" source="pJIeMaMoxb5aIgQhfbgk-16" target="pJIeMaMoxb5aIgQhfbgk-20">
          <mxGeometry relative="1" as="geometry" />
        </mxCell>
        <mxCell id="pJIeMaMoxb5aIgQhfbgk-16" value="selecionar o veiculo" style="whiteSpace=wrap;html=1;rounded=1;" vertex="1" parent="pJIeMaMoxb5aIgQhfbgk-3">
          <mxGeometry x="170" y="182.5" width="110" height="25" as="geometry" />
        </mxCell>
        <mxCell id="pJIeMaMoxb5aIgQhfbgk-29" value="" style="edgeStyle=orthogonalEdgeStyle;rounded=0;orthogonalLoop=1;jettySize=auto;html=1;" edge="1" parent="pJIeMaMoxb5aIgQhfbgk-3" source="pJIeMaMoxb5aIgQhfbgk-20" target="pJIeMaMoxb5aIgQhfbgk-28">
          <mxGeometry relative="1" as="geometry" />
        </mxCell>
        <mxCell id="pJIeMaMoxb5aIgQhfbgk-20" value="Inserir dados da locação" style="whiteSpace=wrap;html=1;rounded=1;" vertex="1" parent="pJIeMaMoxb5aIgQhfbgk-3">
          <mxGeometry x="172.5" y="270" width="105" height="30" as="geometry" />
        </mxCell>
        <mxCell id="pJIeMaMoxb5aIgQhfbgk-30" style="edgeStyle=orthogonalEdgeStyle;rounded=0;orthogonalLoop=1;jettySize=auto;html=1;entryX=0.5;entryY=0;entryDx=0;entryDy=0;" edge="1" parent="pJIeMaMoxb5aIgQhfbgk-3" source="pJIeMaMoxb5aIgQhfbgk-28" target="pJIeMaMoxb5aIgQhfbgk-6">
          <mxGeometry relative="1" as="geometry" />
        </mxCell>
        <mxCell id="pJIeMaMoxb5aIgQhfbgk-28" value="Gerar locação" style="whiteSpace=wrap;html=1;rounded=1;" vertex="1" parent="pJIeMaMoxb5aIgQhfbgk-3">
          <mxGeometry x="20" y="270" width="105" height="30" as="geometry" />
        </mxCell>
        <mxCell id="pJIeMaMoxb5aIgQhfbgk-6" value="" style="ellipse;whiteSpace=wrap;html=1;aspect=fixed;" vertex="1" parent="pJIeMaMoxb5aIgQhfbgk-3">
          <mxGeometry x="57.5" y="360" width="30" height="30" as="geometry" />
        </mxCell>
        <mxCell id="pJIeMaMoxb5aIgQhfbgk-7" value="" style="ellipse;whiteSpace=wrap;html=1;aspect=fixed;fillColor=#000000;" vertex="1" parent="pJIeMaMoxb5aIgQhfbgk-3">
          <mxGeometry x="62.5" y="365" width="20" height="20" as="geometry" />
        </mxCell>
        <mxCell id="pJIeMaMoxb5aIgQhfbgk-15" value="" style="edgeStyle=orthogonalEdgeStyle;rounded=0;orthogonalLoop=1;jettySize=auto;html=1;" edge="1" parent="1" source="pJIeMaMoxb5aIgQhfbgk-12" target="pJIeMaMoxb5aIgQhfbgk-14">
          <mxGeometry relative="1" as="geometry" />
        </mxCell>
      </root>
    </mxGraphModel>
  </diagram>
</mxfile>
